# xmcd CD database file generated by OrangeCD 5.2
#
# Track frame offsets:
#	150
#	20057
#	24086
#	57260
#	64754
#	80472
#	95892
#	115218
#	124316
#	138310
#	148742
#	189069
#	195911
#	204239
#	219189
#	231471
#	242705
#	256454
#	294459
#	302187
#	311936
#	318461
#
# Disc length: 4443 seconds
#
# Revision: 0
# Processed by: cddbd v1.5.1PL0 Copyright (c) Steve Scherf et al.
# Submitted via: OrangeCD 5.2
#
DISCID=44115916
DTITLE=Johnny Cash - The ABC Show Series Volume 6
DYEAR=2000
DGENRE=Country
TTITLE0=Opening:Hey Porter/Orange Blossom Special/Folsom Prison Blues
TTITLE1=Johnny Cash and Ario Guthriel - Oklahoma Hills
TTITLE2=Come Along And Ride This Train
TTITLE3=Blistered
TTITLE4=Sunday Morning Coming Down
TTITLE5=Johnny Cash and June Carter Cash - Help Me Make It Through The Night
TTITLE6=Peace In The Valley
TTITLE7=Opening/Southwind
TTITLE8=Johnny Cash and Joe Scolt, June Carter Cash and George Lindsey - Don't It
TTITLE8=Make You Wanna Go Home
TTITLE9=Johnny Cash and Joni Mitchell - Girl From The North Country
TTITLE10=Ride This Train/Cowpoka/Someday Soon
TTITLE11=Johnny Cash and The Statler Brothers And George Lindsey - Everybody Love
TTITLE11=s A Nut
TTITLE12=Big River
TTITLE13=Poisoned Red Berries
TTITLE14=Wings Of A Dove
TTITLE15=Johnny Cash and June Carter Cash - The Loving Gift
TTITLE16=Opening/Five Feet High And Rising
TTITLE17=Salute To The Delta Queen
TTITLE18=Country Boy
TTITLE19=Pickin' Time
TTITLE20=Johnny Cash and June Carter Cash - Keep On The Sunny Side
TTITLE21=These Hands
EXTD=
EXTT0=
EXTT1=
EXTT2=
EXTT3=
EXTT4=
EXTT5=
EXTT6=
EXTT7=
EXTT8=
EXTT9=
EXTT10=
EXTT11=
EXTT12=
EXTT13=
EXTT14=
EXTT15=
EXTT16=
EXTT17=
EXTT18=
EXTT19=
EXTT20=
EXTT21=
PLAYORDER=
